<svg xmlns="http://www.w3.org/2000/svg"  viewBox="0 0 80 80" width="80px" height="80px"><path d="M 15 10 C 12.25 10 10 12.25 10 15 L 10 65 C 10 67.75 12.25 70 15 70 L 65 70 C 67.75 70 70 67.75 70 65 L 70 15 C 70 12.25 67.75 10 65 10 Z M 15 12 L 65 12 C 66.667969 12 68 13.332031 68 15 L 68 65 C 68 66.667969 66.667969 68 65 68 L 52.019531 68 L 52.019531 47.539063 L 59.4375 47.539063 L 60.824219 36.785156 L 52.019531 36.785156 L 52.019531 32.199219 C 52.019531 31.023438 52.203125 30.222656 52.589844 29.761719 C 52.976563 29.296875 53.699219 28.9375 55.359375 28.9375 L 60.992188 28.933594 L 60.992188 19.230469 L 60.125 19.113281 C 59.21875 18.992188 56.488281 18.761719 53.238281 18.761719 C 49.691406 18.761719 46.59375 19.859375 44.402344 22.027344 C 42.207031 24.191406 40.980469 27.378906 40.980469 31.328125 L 40.980469 36.785156 L 33.421875 36.785156 L 33.421875 47.539063 L 40.980469 47.539063 L 40.980469 68 L 15 68 C 13.332031 68 12 66.667969 12 65 L 12 15 C 12 13.332031 13.332031 12 15 12 Z M 53.238281 20.761719 C 55.976563 20.761719 57.9375 20.941406 58.992188 21.050781 L 58.992188 26.933594 L 55.359375 26.9375 C 53.382813 26.9375 51.933594 27.4375 51.0625 28.472656 C 50.1875 29.507813 50.019531 30.835938 50.019531 32.199219 L 50.019531 38.785156 L 58.546875 38.785156 L 57.675781 45.539063 L 50.019531 45.539063 L 50.019531 68 L 42.980469 68 L 42.980469 45.539063 L 35.421875 45.539063 L 35.421875 38.785156 L 42.980469 38.785156 L 42.980469 31.328125 C 42.980469 27.789063 44.042969 25.191406 45.808594 23.449219 C 47.570313 21.703125 50.101563 20.761719 53.238281 20.761719 Z M 15 61 C 14.449219 61 14 61.449219 14 62 C 14 62.550781 14.449219 63 15 63 C 15.550781 63 16 62.550781 16 62 C 16 61.449219 15.550781 61 15 61 Z M 19 61 C 18.449219 61 18 61.449219 18 62 C 18 62.550781 18.449219 63 19 63 C 19.550781 63 20 62.550781 20 62 C 20 61.449219 19.550781 61 19 61 Z M 23 61 C 22.449219 61 22 61.449219 22 62 C 22 62.550781 22.449219 63 23 63 C 23.550781 63 24 62.550781 24 62 C 24 61.449219 23.550781 61 23 61 Z M 27 61 C 26.449219 61 26 61.449219 26 62 C 26 62.550781 26.449219 63 27 63 C 27.550781 63 28 62.550781 28 62 C 28 61.449219 27.550781 61 27 61 Z M 31 61 C 30.449219 61 30 61.449219 30 62 C 30 62.550781 30.449219 63 31 63 C 31.550781 63 32 62.550781 32 62 C 32 61.449219 31.550781 61 31 61 Z M 35 61 C 34.449219 61 34 61.449219 34 62 C 34 62.550781 34.449219 63 35 63 C 35.550781 63 36 62.550781 36 62 C 36 61.449219 35.550781 61 35 61 Z M 39 61 C 38.449219 61 38 61.449219 38 62 C 38 62.550781 38.449219 63 39 63 C 39.550781 63 40 62.550781 40 62 C 40 61.449219 39.550781 61 39 61 Z M 54 61 C 53.449219 61 53 61.449219 53 62 C 53 62.550781 53.449219 63 54 63 C 54.550781 63 55 62.550781 55 62 C 55 61.449219 54.550781 61 54 61 Z M 58 61 C 57.449219 61 57 61.449219 57 62 C 57 62.550781 57.449219 63 58 63 C 58.550781 63 59 62.550781 59 62 C 59 61.449219 58.550781 61 58 61 Z M 62 61 C 61.449219 61 61 61.449219 61 62 C 61 62.550781 61.449219 63 62 63 C 62.550781 63 63 62.550781 63 62 C 63 61.449219 62.550781 61 62 61 Z M 66 61 C 65.449219 61 65 61.449219 65 62 C 65 62.550781 65.449219 63 66 63 C 66.550781 63 67 62.550781 67 62 C 67 61.449219 66.550781 61 66 61 Z"/></svg>